<?xml version="1.0" encoding="UTF-8" standalone="no"?>
<!DOCTYPE svg PUBLIC "-//W3C//DTD SVG 1.1//EN"
 "http://www.w3.org/Graphics/SVG/1.1/DTD/svg11.dtd">
<!-- Generated by graphviz version 15.1.1 (20260805.0921)
 -->
<!-- Title: include/mvue.h Pages: 1 -->
<!--zoomable 140 -->

<svg id="main" version="1.1" xmlns="http://www.w3.org/2000/svg" xmlns:xlink="http://www.w3.org/1999/xlink" xml:space="preserve" onload="init(evt)">

<style type="text/css"><![CDATA[
.node, .edge {opacity: 0.7;}
.node.selected, .edge.selected {opacity: 1;}
.edge:hover path { stroke: red; }
.edge:hover polygon { stroke: red; fill: red; }
]]></style>

<defs>
  <circle id="rim" cx="0" cy="0" r="7"/>
  <circle id="rim2" cx="0" cy="0" r="3.5"/>
  <g id="zoomPlus">
    <use xlink:href="#rim" fill="#404040"><set attributeName="fill" to="#808080" begin="zoomplus.mouseover" end="zoomplus.mouseout"/></use>
    <path d="M-4,0h8M0,-4v8" fill="none" stroke="white" stroke-width="1.5" pointer-events="none"/>
  </g>
  <g id="zoomMin">
    <use xlink:href="#rim" fill="#404040"><set attributeName="fill" to="#808080" begin="zoomminus.mouseover" end="zoomminus.mouseout"/></use>
    <path d="M-4,0h8" fill="none" stroke="white" stroke-width="1.5" pointer-events="none"/>
  </g>
  <g id="arrowUp" transform="translate(30 24)">
    <use xlink:href="#rim"/>
    <path pointer-events="none" fill="none" stroke="white" stroke-width="1.5" d="M0,-3.0v7 M-2.5,-0.5L0,-3.0L2.5,-0.5"/>
  </g>
  <g id="arrowRight" transform="rotate(90) translate(36 -43)">
    <use xlink:href="#rim"/>
    <path pointer-events="none" fill="none" stroke="white" stroke-width="1.5" d="M0,-3.0v7 M-2.5,-0.5L0,-3.0L2.5,-0.5"/>
  </g>
  <g id="arrowDown" transform="rotate(180) translate(-30 -48)">
    <use xlink:href="#rim"/>
    <path pointer-events="none" fill="none" stroke="white" stroke-width="1.5" d="M0,-3.0v7 M-2.5,-0.5L0,-3.0L2.5,-0.5"/>
  </g>
  <g id="arrowLeft" transform="rotate(270) translate(-36 17)">
    <use xlink:href="#rim"/>
    <path pointer-events="none" fill="none" stroke="white" stroke-width="1.5" d="M0,-3.0v7 M-2.5,-0.5L0,-3.0L2.5,-0.5"/>
  </g>
  <g id="resetDef">
    <use xlink:href="#rim2" fill="#404040"><set attributeName="fill" to="#808080" begin="reset.mouseover" end="reset.mouseout"/></use>
  </g>
</defs>
<script type="application/ecmascript">
var viewWidth = 522;
var viewHeight = 140;
var sectionId = 'dynsection-0';
</script>
<script type="application/ecmascript" xlink:href="../../svg.min.js"/>
<svg id="graph" class="graph">
<g id="viewport">
<title>include/mvue.h</title>
<!-- Node1 -->
<g id="Node000001" class="node">
<title>Node1</title>
<g id="a_Node000001"><a xlink:title="Minimum Variance Unbiased Estimator (MVUE) module.">
<polygon fill="#999999" stroke="#666666" points="263.88,-132 181.88,-132 181.88,-112 263.88,-112 263.88,-132"/>
<text xml:space="preserve" text-anchor="middle" x="222.88" y="-118.5" font-family="Helvetica,sans-Serif" font-size="10.00">include/mvue.h</text>
</a>
</g>
</g>
<!-- Node2 -->
<g id="Node000002" class="node">
<title>Node2</title>
<g id="a_Node000002"><a xlink:href="../../d7/d76/mvue__2_8h.html" target="_top" xlink:title="Two&#45;measurement Minimum Variance Unbiased Estimator.">
<polygon fill="white" stroke="#666666" points="78.25,-76 19.5,-76 19.5,-56 78.25,-56 78.25,-76"/>
<text xml:space="preserve" text-anchor="middle" x="48.88" y="-62.5" font-family="Helvetica,sans-Serif" font-size="10.00">mvue_2.h</text>
</a>
</g>
</g>
<!-- Node1&#45;&gt;Node2 -->
<g id="edge1_Node000001_Node000002" class="edge">
<title>Node1&#45;&gt;Node2</title>
<g id="a_edge1_Node000001_Node000002"><a xlink:title=" ">
<path fill="none" stroke="#63b8ff" d="M192.57,-111.59C163.91,-102.7 120.72,-89.3 89.18,-79.51"/>
<polygon fill="#63b8ff" stroke="#63b8ff" points="90.58,-76.28 79.99,-76.66 88.5,-82.96 90.58,-76.28"/>
</a>
</g>
</g>
<!-- Node4 -->
<g id="Node000004" class="node">
<title>Node4</title>
<g id="a_Node000004"><a xlink:href="../../df/d83/mvue__3_8h.html" target="_top" xlink:title="Three&#45;measurement Minimum Variance Unbiased Estimator.">
<polygon fill="white" stroke="#666666" points="194.25,-76 135.5,-76 135.5,-56 194.25,-56 194.25,-76"/>
<text xml:space="preserve" text-anchor="middle" x="164.88" y="-62.5" font-family="Helvetica,sans-Serif" font-size="10.00">mvue_3.h</text>
</a>
</g>
</g>
<!-- Node1&#45;&gt;Node4 -->
<g id="edge4_Node000001_Node000004" class="edge">
<title>Node1&#45;&gt;Node4</title>
<g id="a_edge4_Node000001_Node000004"><a xlink:title=" ">
<path fill="none" stroke="#63b8ff" d="M212.77,-111.59C204.62,-104.01 192.94,-93.13 183.16,-84.02"/>
<polygon fill="#63b8ff" stroke="#63b8ff" points="185.67,-81.58 175.97,-77.33 180.9,-86.71 185.67,-81.58"/>
</a>
</g>
</g>
<!-- Node6 -->
<g id="Node000006" class="node">
<title>Node6</title>
<g id="a_Node000006"><a xlink:href="../../da/d8c/mvue__4_8h.html" target="_top" xlink:title="Four&#45;measurement Minimum Variance Unbiased Estimator.">
<polygon fill="white" stroke="#666666" points="310.25,-76 251.5,-76 251.5,-56 310.25,-56 310.25,-76"/>
<text xml:space="preserve" text-anchor="middle" x="280.88" y="-62.5" font-family="Helvetica,sans-Serif" font-size="10.00">mvue_4.h</text>
</a>
</g>
</g>
<!-- Node1&#45;&gt;Node6 -->
<g id="edge7_Node000001_Node000006" class="edge">
<title>Node1&#45;&gt;Node6</title>
<g id="a_edge7_Node000001_Node000006"><a xlink:title=" ">
<path fill="none" stroke="#63b8ff" d="M232.98,-111.59C241.13,-104.01 252.81,-93.13 262.59,-84.02"/>
<polygon fill="#63b8ff" stroke="#63b8ff" points="264.85,-86.71 269.78,-77.33 260.08,-81.58 264.85,-86.71"/>
</a>
</g>
</g>
<!-- Node8 -->
<g id="Node000008" class="node">
<title>Node8</title>
<g id="a_Node000008"><a xlink:href="../../db/dea/mvue__n_8h.html" target="_top" xlink:title="N&#45;measurement Minimum Variance Unbiased Estimator.">
<polygon fill="white" stroke="#666666" points="448.38,-76 387.38,-76 387.38,-56 448.38,-56 448.38,-76"/>
<text xml:space="preserve" text-anchor="middle" x="417.88" y="-62.5" font-family="Helvetica,sans-Serif" font-size="10.00">mvue_N.h</text>
</a>
</g>
</g>
<!-- Node1&#45;&gt;Node8 -->
<g id="edge10_Node000001_Node000008" class="edge">
<title>Node1&#45;&gt;Node8</title>
<g id="a_edge10_Node000001_Node000008"><a xlink:title=" ">
<path fill="none" stroke="#63b8ff" d="M256.84,-111.59C290.02,-102.41 340.59,-88.4 376.19,-78.54"/>
<polygon fill="#63b8ff" stroke="#63b8ff" points="377.02,-81.94 385.73,-75.9 375.15,-75.2 377.02,-81.94"/>
</a>
</g>
</g>
<!-- Node3 -->
<g id="Node000003" class="node">
<title>Node3</title>
<g id="a_Node000003"><a xlink:href="../../d1/d96/mvue__2_8tpp.html" target="_top" xlink:title=" ">
<polygon fill="white" stroke="#666666" points="97.75,-20 0,-20 0,0 97.75,0 97.75,-20"/>
<text xml:space="preserve" text-anchor="middle" x="48.88" y="-6.5" font-family="Helvetica,sans-Serif" font-size="10.00">../src/MVUE_2.tpp</text>
</a>
</g>
</g>
<!-- Node2&#45;&gt;Node3 -->
<g id="edge2_Node000002_Node000003" class="edge">
<title>Node2&#45;&gt;Node3</title>
<g id="a_edge2_Node000002_Node000003"><a xlink:title=" ">
<path fill="none" stroke="#63b8ff" d="M43.61,-55.59C42.29,-49.01 41.85,-39.96 42.29,-31.73"/>
<polygon fill="#63b8ff" stroke="#63b8ff" points="45.77,-32.14 43.45,-21.8 38.81,-31.33 45.77,-32.14"/>
</a>
</g>
</g>
<!-- Node3&#45;&gt;Node2 -->
<g id="edge3_Node000003_Node000002" class="edge">
<title>Node3&#45;&gt;Node2</title>
<g id="a_edge3_Node000003_Node000002"><a xlink:title=" ">
<path fill="none" stroke="#63b8ff" d="M54.12,-20.3C55.46,-26.93 55.91,-36.11 55.45,-44.43"/>
<polygon fill="#63b8ff" stroke="#63b8ff" points="52.01,-43.75 54.32,-54.09 58.96,-44.57 52.01,-43.75"/>
</a>
</g>
</g>
<!-- Node5 -->
<g id="Node000005" class="node">
<title>Node5</title>
<g id="a_Node000005"><a xlink:href="../../d0/d65/mvue__3_8tpp.html" target="_top" xlink:title=" ">
<polygon fill="white" stroke="#666666" points="213.75,-20 116,-20 116,0 213.75,0 213.75,-20"/>
<text xml:space="preserve" text-anchor="middle" x="164.88" y="-6.5" font-family="Helvetica,sans-Serif" font-size="10.00">../src/MVUE_3.tpp</text>
</a>
</g>
</g>
<!-- Node4&#45;&gt;Node5 -->
<g id="edge5_Node000004_Node000005" class="edge">
<title>Node4&#45;&gt;Node5</title>
<g id="a_edge5_Node000004_Node000005"><a xlink:title=" ">
<path fill="none" stroke="#63b8ff" d="M159.61,-55.59C158.29,-49.01 157.85,-39.96 158.29,-31.73"/>
<polygon fill="#63b8ff" stroke="#63b8ff" points="161.77,-32.14 159.45,-21.8 154.81,-31.33 161.77,-32.14"/>
</a>
</g>
</g>
<!-- Node5&#45;&gt;Node4 -->
<g id="edge6_Node000005_Node000004" class="edge">
<title>Node5&#45;&gt;Node4</title>
<g id="a_edge6_Node000005_Node000004"><a xlink:title=" ">
<path fill="none" stroke="#63b8ff" d="M170.12,-20.3C171.46,-26.93 171.91,-36.11 171.45,-44.43"/>
<polygon fill="#63b8ff" stroke="#63b8ff" points="168.01,-43.75 170.32,-54.09 174.96,-44.57 168.01,-43.75"/>
</a>
</g>
</g>
<!-- Node7 -->
<g id="Node000007" class="node">
<title>Node7</title>
<g id="a_Node000007"><a xlink:href="../../d9/d70/mvue__4_8tpp.html" target="_top" xlink:title=" ">
<polygon fill="white" stroke="#666666" points="329.75,-20 232,-20 232,0 329.75,0 329.75,-20"/>
<text xml:space="preserve" text-anchor="middle" x="280.88" y="-6.5" font-family="Helvetica,sans-Serif" font-size="10.00">../src/MVUE_4.tpp</text>
</a>
</g>
</g>
<!-- Node6&#45;&gt;Node7 -->
<g id="edge8_Node000006_Node000007" class="edge">
<title>Node6&#45;&gt;Node7</title>
<g id="a_edge8_Node000006_Node000007"><a xlink:title=" ">
<path fill="none" stroke="#63b8ff" d="M275.61,-55.59C274.29,-49.01 273.85,-39.96 274.29,-31.73"/>
<polygon fill="#63b8ff" stroke="#63b8ff" points="277.77,-32.14 275.45,-21.8 270.81,-31.33 277.77,-32.14"/>
</a>
</g>
</g>
<!-- Node7&#45;&gt;Node6 -->
<g id="edge9_Node000007_Node000006" class="edge">
<title>Node7&#45;&gt;Node6</title>
<g id="a_edge9_Node000007_Node000006"><a xlink:title=" ">
<path fill="none" stroke="#63b8ff" d="M286.12,-20.3C287.46,-26.93 287.91,-36.11 287.45,-44.43"/>
<polygon fill="#63b8ff" stroke="#63b8ff" points="284.01,-43.75 286.32,-54.09 290.96,-44.57 284.01,-43.75"/>
</a>
</g>
</g>
<!-- Node9 -->
<g id="Node000009" class="node">
<title>Node9</title>
<g id="a_Node000009"><a xlink:title=" ">
<polygon fill="#e0e0e0" stroke="#999999" points="396,-20 347.75,-20 347.75,0 396,0 396,-20"/>
<text xml:space="preserve" text-anchor="middle" x="371.88" y="-6.5" font-family="Helvetica,sans-Serif" font-size="10.00">cstddef</text>
</a>
</g>
</g>
<!-- Node8&#45;&gt;Node9 -->
<g id="edge11_Node000008_Node000009" class="edge">
<title>Node8&#45;&gt;Node9</title>
<g id="a_edge11_Node000008_Node000009"><a xlink:title=" ">
<path fill="none" stroke="#63b8ff" d="M409.86,-55.59C403.6,-48.24 394.7,-37.8 387.09,-28.87"/>
<polygon fill="#63b8ff" stroke="#63b8ff" points="389.93,-26.79 380.78,-21.45 384.6,-31.33 389.93,-26.79"/>
</a>
</g>
</g>
<!-- Node10 -->
<g id="Node000010" class="node">
<title>Node10</title>
<g id="a_Node000010"><a xlink:href="../../d4/d25/mvue__n_8tpp.html" target="_top" xlink:title=" ">
<polygon fill="white" stroke="#666666" points="513.88,-20 413.88,-20 413.88,0 513.88,0 513.88,-20"/>
<text xml:space="preserve" text-anchor="middle" x="463.88" y="-6.5" font-family="Helvetica,sans-Serif" font-size="10.00">../src/MVUE_N.tpp</text>
</a>
</g>
</g>
<!-- Node8&#45;&gt;Node10 -->
<g id="edge12_Node000008_Node000010" class="edge">
<title>Node8&#45;&gt;Node10</title>
<g id="a_edge12_Node000008_Node000010"><a xlink:title=" ">
<path fill="none" stroke="#63b8ff" d="M420.62,-55.59C425.51,-48.08 434.29,-37.35 442.79,-28.3"/>
<polygon fill="#63b8ff" stroke="#63b8ff" points="445.1,-30.94 449.64,-21.37 440.12,-26.02 445.1,-30.94"/>
</a>
</g>
</g>
<!-- Node10&#45;&gt;Node8 -->
<g id="edge13_Node000010_Node000008" class="edge">
<title>Node10&#45;&gt;Node8</title>
<g id="a_edge13_Node000010_Node000008"><a xlink:title=" ">
<path fill="none" stroke="#63b8ff" d="M461.2,-20.3C456.34,-27.78 447.58,-38.5 439.08,-47.57"/>
<polygon fill="#63b8ff" stroke="#63b8ff" points="436.76,-44.94 432.22,-54.52 441.74,-49.86 436.76,-44.94"/>
</a>
</g>
</g>
</g>
</svg>

<g id="navigator" transform="translate(0 0)" fill="#404254">
  <rect fill="#f2f5e9" fill-opacity="0.5" stroke="#606060" stroke-width=".5" x="0" y="0" width="60" height="60"/>
  <use id="zoomplus" xlink:href="#zoomPlus" x="17" y="9" onmousedown="handleZoom(evt,'in')"/>
  <use id="zoomminus" xlink:href="#zoomMin" x="42" y="9" onmousedown="handleZoom(evt,'out')"/>
  <use id="reset" xlink:href="#resetDef" x="30" y="36" onmousedown="handleReset()"/>
   <use id="arrowup" xlink:href="#arrowUp" x="0" y="0" onmousedown="handlePan(0,-1)"/>
  <use id="arrowright" xlink:href="#arrowRight" x="0" y="0" onmousedown="handlePan(1,0)"/>
  <use id="arrowdown" xlink:href="#arrowDown" x="0" y="0" onmousedown="handlePan(0,1)"/>
  <use id="arrowleft" xlink:href="#arrowLeft" x="0" y="0" onmousedown="handlePan(-1,0)"/>
</g>
<svg viewBox="0 0 15 15" width="100%" height="30px" preserveAspectRatio="xMaxYMin meet">
 <g id="arrow_out" transform="scale(0.3 0.3)">
  <a xlink:href="mvue_8h__incl_org.svg" target="_base">
   <rect id="button" ry="5" rx="5" y="6" x="6" height="38" width="38"
        fill="#f2f5e9" fill-opacity="0.5" stroke="#606060" stroke-width="1.0"/>
   <path id="arrow"
     d="M 11.500037,31.436501 C 11.940474,20.09759 22.043105,11.32322 32.158766,21.979434 L 37.068811,17.246167 C 37.068811,17.246167 37.088388,32 37.088388,32 L 22.160133,31.978069 C 22.160133,31.978069 26.997745,27.140456 26.997745,27.140456 C 18.528582,18.264221 13.291696,25.230495 11.500037,31.436501 z"
     style="fill:#404040;"/>
  </a>
 </g>
</svg>

<style type='text/css'>
<![CDATA[
[data-mouse-over-selected='false'] { opacity: 0.7; }
[data-mouse-over-selected='true']  { opacity: 1.0; }
]]>
</style>
<script type="application/ecmascript"><![CDATA[
document.addEventListener('DOMContentLoaded', (event) => {
  highlightEdges();
  highlightAdjacentNodes();
});
]]></script>
</svg>
